<mxfile host="app.diagrams.net" modified="2023-07-27T22:19:31.140Z" agent="Mozilla/5.0 (Windows NT 10.0; Win64; x64) AppleWebKit/537.36 (KHTML, like Gecko) Chrome/114.0.0.0 Safari/537.36" version="21.6.5" etag="43iotIT_v1MuMJgegyRo" type="github">
  <diagram name="Page-1" id="9YF9mkdREB0pVxkGvZGa">
    <mxGraphModel>
      <root>
        <mxCell id="0" />
        <mxCell id="1" parent="0" />
      </root>
    </mxGraphModel>
  </diagram>
</mxfile>
